<?xml version="1.0" encoding="UTF-8"?>
<svg id="Capa_1" xmlns="http://www.w3.org/2000/svg" viewBox="0 0 491.58 336.13">
  <defs>
    <style>
      .cls-1 {
        fill: none;
        stroke: #222221;
        stroke-miterlimit: 10;
        stroke-width: 5px;
      }
    </style>
  </defs>
  <g id="_x34_">
    <path d="M225.1,112.77c.81.76,1.6,1.55,2.37,2.36,9.51,10.03,15.46,22.83,17.85,38.38h32.63c1.12,0,2.2-.04,3.26-.1-1.79-14.39-5.95-27.31-12.55-38.73-4.25-7.35-9.33-13.87-15.16-19.63h-28.4v17.72Z"/>
    <path d="M245.88,182.15c-1.9,17.31-8.03,31.24-18.4,41.78-.77.78-1.56,1.54-2.37,2.27v17.07h29.05c5.56-5.49,10.42-11.66,14.51-18.6,7.26-12.31,11.56-26.49,13-42.48-.35,0-.69-.03-1.05-.03h-34.73Z"/>
    <path d="M173,243.26h-38.67V95.05h38.67c6.12,0,11.87.46,17.26,1.36v-29.67c-5.45-.6-11.1-.92-16.96-.92h-73.81v206.67h73.81c5.87,0,11.51-.31,16.96-.9v-29.64c-5.39.87-11.14,1.31-17.26,1.31Z"/>
    <path d="M347.33,191.59c-3.54-6.89-8.56-12.2-15.06-15.94-6.5-3.74-13.98-6.2-22.44-7.38v-2.36c7.08-1.57,13.48-4.23,19.19-7.97,5.71-3.74,10.23-8.76,13.58-15.06,3.34-6.3,5.02-13.97,5.02-23.03,0-9.84-2.51-18.84-7.53-27.01-5.02-8.17-12.45-14.71-22.29-19.63-9.85-4.92-22.05-7.38-36.61-7.38h-41.52c5.39,2.43,10.53,5.35,15.4,8.83,7.87,5.63,14.86,12.46,21.04,20.4h1.54c11.02,0,19.53,2.56,25.54,7.68,6,5.12,9,12.3,9,21.55s-3,16.44-9,21.55c-5.38,4.59-12.72,7.1-21.98,7.58.66,5.34,1.03,10.88,1.03,16.63,0,4.17-.23,8.19-.58,12.14,10.53.17,19.1,2.8,25.67,7.94,6.79,5.31,10.19,12.99,10.19,23.03s-3.2,17.32-9.6,22.44c-6.4,5.12-15.11,7.68-26.13,7.68h-6.68c-3.56,5.42-7.6,10.37-12.12,14.84-5.6,5.54-11.97,10.32-19.05,14.39h41.39c13.97,0,25.98-2.41,36.02-7.23,10.04-4.82,17.76-11.41,23.18-19.78,5.41-8.36,8.12-17.76,8.12-28.2s-1.77-18.79-5.31-25.68Z"/>
    <path d="M245.32,153.51c.8,5.2,1.2,10.71,1.2,16.53,0,4.21-.22,8.24-.64,12.11h34.73c.36,0,.7.03,1.05.03.35-3.94.58-7.97.58-12.14,0-5.76-.36-11.29-1.03-16.63-1.07.05-2.15.1-3.26.1h-32.63Z"/>
    <path d="M225.1,112.77v-17.72h28.4c-6.59-6.51-14.16-12.04-22.78-16.53-11.92-6.21-25.42-10.12-40.46-11.77v29.67c14.14,2.36,25.75,7.81,34.84,16.36Z"/>
    <path d="M254.15,243.26h-29.05v-17.07c-9.08,8.24-20.7,13.48-34.84,15.76v29.64c15.04-1.61,28.54-5.43,40.46-11.5,8.9-4.53,16.68-10.17,23.42-16.83Z"/>
    <rect x="190.26" y="145.9" width="34.89" height="112.93"/>
    <path d="M190.35,111.88c6.28,0,34.8,7.62,34.8,34.02h-34.89s.09-34.02.09-34.02"/>
    <rect x="230.62" y="113.15" width="28.64" height="109.34" transform="translate(412.76 -77.11) rotate(90)"/>
  </g>
  <g>
    <line class="cls-1" x1="287.93" y1="86.24" x2="304.05" y2="44.54"/>
    <circle class="cls-1" cx="313.85" cy="24.22" r="21.72"/>
    <line class="cls-1" x1="335.57" y1="24.22" x2="445.46" y2="59.26"/>
    <circle class="cls-1" cx="467.35" cy="63.46" r="21.72"/>
    <line class="cls-1" x1="454.08" y1="80.65" x2="396.26" y2="180.84"/>
    <circle class="cls-1" cx="383.05" cy="198.09" r="21.72"/>
    <line class="cls-1" x1="375.7" y1="87.99" x2="329.22" y2="39.56"/>
    <circle class="cls-1" cx="391.54" cy="102.33" r="21.72"/>
    <line class="cls-1" x1="309.6" y1="188.82" x2="361.33" y2="200.65"/>
  </g>
  <g>
    <line class="cls-1" x1="202.09" y1="260.69" x2="176.44" y2="299.56"/>
    <circle class="cls-1" cx="158.56" cy="311.9" r="21.72"/>
    <line class="cls-1" x1="137.87" y1="305.3" x2="43.81" y2="238.54"/>
    <circle class="cls-1" cx="24.23" cy="227.88" r="21.72"/>
    <line class="cls-1" x1="42.1" y1="215.54" x2="129.3" y2="130.75"/>
    <line class="cls-1" x1="119" y1="232.36" x2="155.19" y2="290.44"/>
  </g>
</svg>