<?xml version="1.0" encoding="UTF-8"?>
<svg id="Capa_1" xmlns="http://www.w3.org/2000/svg" viewBox="0 0 502.01 409.82">
  <g id="_x34_">
    <path d="M249.09,93.09c1.61,1.51,3.18,3.07,4.71,4.68,18.86,19.89,30.66,45.26,35.39,76.11h64.7c2.22,0,4.36-.09,6.47-.2-3.55-28.54-11.81-54.16-24.9-76.79-8.43-14.57-18.49-27.5-30.06-38.93h-56.32v35.13Z"/>
    <path d="M290.29,230.67c-3.76,34.33-15.92,61.95-36.49,82.84-1.53,1.55-3.1,3.05-4.71,4.51v33.84h57.6c11.02-10.89,20.66-23.13,28.78-36.89,14.39-24.42,22.92-52.54,25.77-84.24-.7-.01-1.37-.06-2.08-.06h-68.87Z"/>
    <path d="M145.78,351.86h-76.69V57.96h76.69c12.14,0,23.54.91,34.23,2.7V1.83C169.19.64,158,0,146.37,0H0v409.82h146.37c11.63,0,22.82-.62,33.64-1.78v-58.77c-10.69,1.72-22.09,2.6-34.23,2.6Z"/>
    <path d="M491.47,249.41c-7.03-13.66-16.98-24.2-29.86-31.61-12.88-7.41-27.72-12.3-44.49-14.64v-4.69c14.05-3.12,26.73-8.39,38.05-15.81,11.31-7.41,20.29-17.36,26.93-29.86,6.63-12.49,9.95-27.71,9.95-45.67,0-19.51-4.97-37.37-14.93-53.57-9.95-16.19-24.69-29.17-44.2-38.93-19.52-9.75-43.72-14.64-72.6-14.64h-82.33c10.69,4.82,20.89,10.61,30.53,17.5,15.61,11.16,29.47,24.7,41.72,40.46h3.04c21.86,0,38.74,5.08,50.64,15.22,11.9,10.15,17.86,24.4,17.86,42.74s-5.96,32.59-17.86,42.74c-10.68,9.1-25.23,14.09-43.58,15.03,1.32,10.6,2.03,21.57,2.03,32.98,0,8.27-.45,16.25-1.16,24.07,20.88.33,37.87,5.55,50.9,15.74,13.47,10.54,20.2,25.76,20.2,45.66s-6.35,34.35-19.03,44.5c-12.69,10.15-29.96,15.22-51.81,15.22h-13.24c-7.06,10.74-15.07,20.56-24.04,29.42-11.11,10.98-23.73,20.46-37.78,28.54h82.09c27.71,0,51.52-4.77,71.42-14.34,19.91-9.56,35.22-22.63,45.96-39.22,10.73-16.59,16.1-35.22,16.1-55.91s-3.52-37.27-10.54-50.93Z"/>
    <path d="M289.18,173.88c1.58,10.32,2.37,21.24,2.37,32.78,0,8.34-.43,16.34-1.27,24h68.87c.71,0,1.38.05,2.08.06.7-7.82,1.16-15.8,1.16-24.07,0-11.41-.72-22.38-2.03-32.98-2.12.11-4.25.2-6.47.2h-64.7Z"/>
    <path d="M249.09,93.09v-35.13h56.32c-13.07-12.91-28.09-23.88-45.17-32.79-23.63-12.31-50.4-20.07-80.23-23.35v58.83c28.03,4.68,51.07,15.48,69.08,32.44Z"/>
    <path d="M306.69,351.86h-57.6v-33.84c-18.01,16.33-41.05,26.74-69.08,31.24v58.77c29.83-3.2,56.6-10.77,80.23-22.81,17.65-8.99,33.08-20.16,46.45-33.37Z"/>
    <rect x="180.01" y="158.8" width="69.18" height="223.93"/>
    <path d="M180.18,91.34c12.46,0,69.01,15.11,69.01,67.46h-69.18s.17-67.46.17-67.46"/>
    <rect x="260.03" y="93.86" width="56.79" height="216.83" transform="translate(490.7 -86.15) rotate(90)"/>
  </g>
</svg>